<svg viewBox="0 0 200 200" xmlns="http://www.w3.org/2000/svg"><g transform="matrix(8.333333,0,0,8.333333,0,0)"><path fill="currentColor" fill-rule="evenodd" d="M5.938,12.835C6.065,12.796 6.223,12.855 6.311,12.978C6.339,13.016 6.347,13.07 6.357,13.118C6.36,13.132 6.337,13.151 6.317,13.168C6.193,13.07 6.077,12.974 5.963,12.877C5.952,12.867 5.947,12.85 5.938,12.835ZM8.396,9.412C8.591,9.38 8.786,9.352 8.984,9.362C9.034,9.364 9.084,9.372 9.132,9.388C9.334,9.459 9.534,9.535 9.733,9.612C9.761,9.622 9.783,9.648 9.808,9.667L9.795,9.694C9.708,9.666 9.621,9.636 9.535,9.605C9.42,9.567 9.322,9.528 9.22,9.507C8.97,9.457 8.97,9.461 8.928,9.493L9.502,9.637C9.777,9.776 10.052,9.913 10.325,10.054C10.367,10.076 10.415,10.111 10.432,10.152C10.458,10.212 10.495,10.228 10.549,10.224C10.615,10.218 10.681,10.207 10.762,10.197L10.722,10.283C10.773,10.363 10.864,10.303 10.938,10.347C10.864,10.477 10.691,10.437 10.604,10.546L10.665,10.62L10.545,10.707C10.545,10.813 10.507,10.875 10.239,10.95L10.265,11.035L10.069,11.077L10.139,11.201L9.889,11.201L9.882,11.338C9.801,11.328 9.721,11.32 9.638,11.311L9.585,11.434C9.558,11.426 9.533,11.423 9.512,11.411C9.445,11.373 9.384,11.355 9.317,11.417C9.298,11.434 9.254,11.431 9.224,11.425C9.198,11.419 9.174,11.396 9.154,11.383C9.044,11.478 9.044,11.478 8.946,11.386C8.889,11.432 8.826,11.46 8.76,11.397C8.697,11.424 8.637,11.377 8.582,11.383C8.512,11.39 8.485,11.348 8.449,11.313L8.319,11.346C8.306,11.11 8.125,11.156 7.979,11.143C7.984,11.071 8.029,11.051 8.074,11.049C8.128,11.047 8.182,11.055 8.233,11.071C8.397,11.121 8.553,11.191 8.729,11.209C8.932,11.23 9.134,11.238 9.33,11.194C9.595,11.135 9.85,11.045 10.037,10.829C10.086,10.773 10.12,10.702 10.154,10.634C10.173,10.596 10.174,10.55 10.134,10.518C10.019,10.426 9.89,10.353 9.752,10.301C9.776,10.421 9.721,10.483 9.637,10.522C9.637,10.536 9.633,10.547 9.637,10.552C9.717,10.667 9.721,10.712 9.63,10.819C9.565,10.897 9.492,10.968 9.412,11.03C9.219,11.181 8.939,11.159 8.771,10.98C8.723,10.933 8.679,10.882 8.638,10.828C8.56,10.721 8.562,10.72 8.605,10.592C8.44,10.512 8.477,10.366 8.501,10.228C8.509,10.178 8.529,10.132 8.55,10.065C8.51,10.079 8.483,10.082 8.463,10.097C8.327,10.185 8.218,10.309 8.147,10.454C8.14,10.47 8.137,10.488 8.127,10.501C8.115,10.516 8.093,10.539 8.082,10.536C8.062,10.53 8.045,10.509 8.032,10.491C8.024,10.479 8.025,10.459 8.02,10.434L7.894,10.434L7.947,10.262C7.934,10.246 7.921,10.229 7.908,10.213L8.018,9.929C7.958,9.955 7.927,9.973 7.894,9.98C7.864,9.987 7.83,9.98 7.799,9.98C7.799,9.949 7.789,9.91 7.803,9.888C7.952,9.668 8.108,9.46 8.396,9.412Z"/><path fill="currentColor" fill-rule="evenodd" d="M8.06,10.788C8.057,10.75 8.056,10.713 8.097,10.726C8.113,10.732 8.131,10.774 8.125,10.793C8.115,10.833 8.087,10.825 8.061,10.788L8.06,10.788Z"/><path fill="currentColor" fill-rule="evenodd" d="M11.981,0.009C12.207,-0.003 12.434,-0.002 12.66,0.009C12.907,0.019 13.155,0.033 13.4,0.071C13.801,0.135 14.198,0.228 14.59,0.344C15.053,0.482 15.51,0.643 15.946,0.855C17.153,1.448 18.173,2.362 18.894,3.497C19.186,3.966 19.43,4.46 19.633,4.976C19.852,5.532 20.079,6.086 20.256,6.659C20.46,7.313 20.585,7.985 20.714,8.656C20.811,9.16 20.896,9.666 21.004,10.167C21.16,10.889 21.333,11.607 21.498,12.327C21.684,13.139 21.898,13.942 22.128,14.742C22.23,15.097 22.321,15.455 22.41,15.814C22.52,16.25 22.612,16.69 22.664,17.137C22.695,17.415 22.73,17.694 22.737,17.974C22.748,18.267 22.743,18.561 22.72,18.854C22.683,19.267 22.62,19.672 22.494,20.066C22.296,20.669 21.985,21.228 21.579,21.715L21.449,21.871L21.467,21.894C21.51,21.871 21.555,21.853 21.594,21.826C21.794,21.688 21.967,21.519 22.125,21.336C22.525,20.876 22.846,20.363 23.1,19.807C23.349,19.269 23.46,18.678 23.425,18.087C23.401,17.663 23.328,17.253 23.125,16.874C23.112,16.847 23.11,16.814 23.095,16.753C23.145,16.788 23.177,16.801 23.196,16.825C23.303,16.955 23.416,17.083 23.511,17.223C23.841,17.717 23.971,18.275 23.997,18.863C24.024,19.55 23.861,20.232 23.527,20.833C23.167,21.488 22.64,21.973 22.001,22.339C21.808,22.45 21.607,22.549 21.406,22.647C21.249,22.725 21.158,22.858 21.088,23.012C21.022,23.137 21.011,23.284 21.055,23.418C21.068,23.463 21.073,23.51 21.068,23.557C21.063,23.634 20.991,23.712 20.928,23.719C20.874,23.725 20.803,23.676 20.778,23.603C20.75,23.528 20.73,23.449 20.718,23.37C20.678,23.056 20.563,22.77 20.41,22.5C20.214,22.162 19.968,21.855 19.68,21.59C19.429,21.344 19.121,21.164 18.783,21.066C18.557,21.003 18.325,20.959 18.091,20.935C18.016,20.927 17.941,20.895 17.871,20.945C18.051,21.005 18.234,21.055 18.409,21.125C18.843,21.298 19.229,21.555 19.589,21.853C19.897,22.108 20.169,22.396 20.383,22.737C20.481,22.892 20.569,23.052 20.61,23.233C20.637,23.356 20.652,23.483 20.677,23.608C20.69,23.67 20.675,23.717 20.624,23.752C20.577,23.785 20.502,23.786 20.461,23.742C20.426,23.7 20.399,23.653 20.381,23.602C20.351,23.529 20.343,23.443 20.303,23.377C19.915,22.754 19.435,22.193 18.88,21.713C18.72,21.576 18.551,21.453 18.343,21.39C17.967,21.276 17.59,21.187 17.193,21.236C16.98,21.261 16.766,21.268 16.553,21.289C16.288,21.319 16.035,21.415 15.817,21.567C15.514,21.776 15.234,22.018 14.983,22.287C14.654,22.629 14.341,22.986 14.028,23.342C13.892,23.497 13.764,23.661 13.714,23.873C13.71,23.89 13.706,23.907 13.702,23.924C13.693,23.967 13.656,23.998 13.612,24L13.302,24C13.256,24 13.22,23.952 13.23,23.906C13.253,23.798 13.275,23.69 13.3,23.582C13.375,23.257 13.49,22.947 13.668,22.665C13.692,22.626 13.708,22.577 13.772,22.585L13.782,22.634L13.809,22.711C14.089,22.276 14.38,21.877 14.805,21.576C15.088,21.372 15.389,21.198 15.695,21.026C15.663,21.017 15.629,21.016 15.597,21.024C15.435,21.067 15.272,21.108 15.112,21.158C14.71,21.282 14.348,21.488 14.002,21.724C13.855,21.824 13.704,21.917 13.588,22.057C13.15,22.592 12.789,23.187 12.518,23.824C12.502,23.863 12.488,23.903 12.478,23.944C12.469,23.977 12.44,24 12.406,24L11.912,24C11.872,24 11.85,23.949 11.876,23.918C11.999,23.778 12.122,23.636 12.253,23.503C12.528,23.222 12.833,22.971 13.03,22.619C13.057,22.571 13.093,22.529 13.125,22.484C13.363,22.151 13.665,21.877 13.943,21.582C14.025,21.496 14.118,21.422 14.203,21.342C14.232,21.315 14.256,21.285 14.282,21.257L14.264,21.232L14.129,21.273C14.095,21.29 14.059,21.304 14.027,21.323C13.779,21.467 13.533,21.615 13.284,21.756C12.876,21.986 12.459,22.195 12.075,22.467C11.794,22.667 11.484,22.825 11.186,23C11.166,23.012 11.142,23.015 11.106,23.028C11.091,22.893 11.249,22.827 11.214,22.692C11.181,22.706 11.15,22.712 11.129,22.73C11.018,22.826 10.902,22.92 10.801,23.026C10.653,23.183 10.517,23.351 10.376,23.514C10.251,23.657 10.126,23.8 10.003,23.945C9.975,23.979 9.934,23.999 9.89,24L8.762,24C8.768,23.986 8.774,23.972 8.778,23.958C8.806,23.868 8.863,23.786 8.861,23.678C8.77,23.66 8.699,23.679 8.649,23.755C8.602,23.825 8.556,23.897 8.513,23.97C8.503,23.986 8.489,24 8.471,24L8.378,24C8.359,24 8.349,23.978 8.361,23.963C8.432,23.875 8.501,23.785 8.57,23.695C8.571,23.693 8.564,23.683 8.558,23.671C8.544,23.675 8.528,23.677 8.513,23.684C8.337,23.774 8.161,23.865 7.986,23.958C7.934,23.985 7.877,24 7.818,24L5.202,24C5.176,24 5.163,23.964 5.183,23.947C5.393,23.769 5.585,23.573 5.741,23.342C6.076,22.846 6.279,22.295 6.408,21.713C6.412,21.693 6.405,21.67 6.402,21.622C6.365,21.67 6.343,21.694 6.326,21.722C6.234,21.875 6.122,22.015 5.992,22.137C5.712,22.395 5.402,22.585 5.009,22.601C4.712,22.613 4.421,22.601 4.144,22.474C3.684,22.264 3.422,21.904 3.35,21.402C3.325,21.232 3.333,21.231 3.168,21.183C2.735,21.067 2.328,20.869 1.97,20.6C1.59,20.316 1.308,19.921 1.162,19.47C1.036,19.068 0.981,18.646 1.002,18.225C1.004,18.191 1.018,18.158 1.026,18.125C1.058,18.148 1.072,18.168 1.076,18.191C1.109,18.344 1.135,18.499 1.172,18.651C1.258,19.006 1.429,19.315 1.688,19.571C1.946,19.827 2.259,19.99 2.598,20.103C2.956,20.221 3.315,20.241 3.668,20.087C3.904,19.98 4.115,19.827 4.289,19.635C4.617,19.287 4.822,18.875 4.937,18.412C4.946,18.378 4.942,18.341 4.944,18.302C4.929,18.308 4.918,18.308 4.914,18.313C4.883,18.363 4.85,18.413 4.821,18.465C4.537,18.967 4.142,19.352 3.625,19.6C3.274,19.77 2.907,19.855 2.515,19.759C2.123,19.674 1.776,19.446 1.544,19.119C1.346,18.847 1.219,18.529 1.176,18.195C1.137,17.9 1.144,17.602 1.196,17.309C1.246,16.87 1.662,16.139 1.938,16.038C1.918,16.101 1.903,16.15 1.885,16.198C1.842,16.314 1.788,16.425 1.755,16.543C1.679,16.809 1.662,17.089 1.705,17.363C1.738,17.575 1.795,17.779 1.909,17.963C2.056,18.199 2.255,18.37 2.529,18.428C2.639,18.451 2.754,18.442 2.867,18.446C3.007,18.451 3.145,18.404 3.253,18.315C3.417,18.187 3.535,18.023 3.619,17.834C3.787,17.459 3.859,17.057 3.928,16.655C3.978,16.359 4.021,16.061 4.061,15.762C4.1,15.481 4.132,15.199 4.165,14.917C4.191,14.685 4.213,14.453 4.239,14.221C4.263,13.993 4.291,13.766 4.315,13.538C4.339,13.311 4.362,13.083 4.384,12.855C4.397,12.715 4.406,12.575 4.418,12.435L4.455,12.018C4.477,11.768 4.496,11.518 4.52,11.27C4.528,11.188 4.5,11.138 4.43,11.093C4.248,10.976 4.083,10.835 3.938,10.675C3.838,10.566 3.75,10.447 3.656,10.333C3.621,10.291 3.6,10.236 3.54,10.215C3.6,10.427 3.692,10.629 3.815,10.812C3.875,10.904 3.946,10.988 4.011,11.077C4.074,11.163 4.193,11.192 4.245,11.303C4.217,11.306 4.199,11.313 4.185,11.309C4.111,11.292 4.038,11.273 3.965,11.252C3.466,11.108 3.02,10.824 2.678,10.433C2.243,9.946 2.022,9.357 1.968,8.71C1.937,8.357 1.941,8.002 1.982,7.65C2.054,7.048 2.202,6.464 2.432,5.905C2.587,5.529 2.77,5.164 2.958,4.803C3.163,4.41 3.424,4.053 3.723,3.727C4.235,3.168 4.827,2.703 5.449,2.279C6.166,1.789 6.927,1.381 7.726,1.046C8.244,0.828 8.767,0.632 9.31,0.494C9.965,0.328 10.62,0.164 11.292,0.079C11.521,0.049 11.75,0.021 11.98,0.009L11.981,0.009Z"/></g></svg>
